<svg width="113" height="27" viewBox="0 0 113 27" fill="none" xmlns="http://www.w3.org/2000/svg">
<path d="M0.92 26.5V0.579998H7.672C8.78133 0.579998 9.82667 0.665332 10.808 0.835999C11.8107 1.00667 12.696 1.33733 13.464 1.828C14.232 2.29733 14.8293 2.98 15.256 3.876C15.704 4.75067 15.928 5.91333 15.928 7.364C15.928 8.40933 15.768 9.29467 15.448 10.02C15.1493 10.724 14.712 11.2893 14.136 11.716C13.5813 12.1427 12.9093 12.4307 12.12 12.58C13.1227 12.708 13.9653 13.0387 14.648 13.572C15.3307 14.084 15.8427 14.7773 16.184 15.652C16.5467 16.5267 16.728 17.5827 16.728 18.82C16.728 20.164 16.5467 21.3267 16.184 22.308C15.8427 23.268 15.3413 24.0573 14.68 24.676C14.0187 25.2947 13.1973 25.7533 12.216 26.052C11.256 26.3507 10.1467 26.5 8.888 26.5H0.92ZM6.648 22.5H7.864C9.12267 22.5 9.98667 22.18 10.456 21.54C10.9467 20.9 11.192 19.9613 11.192 18.724C11.192 17.7427 11.0853 16.964 10.872 16.388C10.6587 15.812 10.3067 15.396 9.816 15.14C9.32533 14.8627 8.664 14.724 7.832 14.724H6.648V22.5ZM6.648 10.948H7.768C8.64267 10.948 9.304 10.82 9.752 10.564C10.2 10.2867 10.4987 9.892 10.648 9.38C10.8187 8.868 10.904 8.24933 10.904 7.524C10.904 6.84133 10.776 6.276 10.52 5.828C10.2853 5.35867 9.92267 5.00667 9.432 4.772C8.96267 4.53733 8.36533 4.42 7.64 4.42H6.648V10.948ZM19.7645 26.5V0.579998H25.4925V26.5H19.7645ZM36.2375 26.884C34.6162 26.884 33.2615 26.596 32.1735 26.02C31.0855 25.444 30.2642 24.5587 29.7095 23.364C29.1548 22.148 28.8455 20.58 28.7815 18.66L33.6775 17.924C33.6988 19.0333 33.7948 19.9293 33.9655 20.612C34.1575 21.2947 34.4135 21.7853 34.7335 22.084C35.0748 22.3827 35.4802 22.532 35.9495 22.532C36.5468 22.532 36.9308 22.3293 37.1015 21.924C37.2935 21.5187 37.3895 21.092 37.3895 20.644C37.3895 19.5773 37.1335 18.6813 36.6215 17.956C36.1095 17.2093 35.4162 16.4627 34.5415 15.716L32.3015 13.764C31.3202 12.932 30.4882 11.9933 29.8055 10.948C29.1442 9.88133 28.8135 8.56933 28.8135 7.012C28.8135 4.81467 29.4642 3.14 30.7655 1.988C32.0668 0.814665 33.8375 0.227999 36.0775 0.227999C37.4642 0.227999 38.5735 0.462666 39.4055 0.931999C40.2588 1.40133 40.8988 2.02 41.3255 2.788C41.7735 3.53467 42.0722 4.33467 42.2215 5.188C42.3922 6.02 42.4882 6.82 42.5095 7.588L37.5815 8.196C37.5602 7.428 37.5068 6.76667 37.4215 6.212C37.3575 5.636 37.2082 5.19867 36.9735 4.9C36.7388 4.58 36.3762 4.42 35.8855 4.42C35.3522 4.42 34.9575 4.644 34.7015 5.092C34.4668 5.54 34.3495 5.988 34.3495 6.436C34.3495 7.396 34.5735 8.18533 35.0215 8.804C35.4908 9.40133 36.0988 10.0307 36.8455 10.692L38.9895 12.58C40.1202 13.54 41.0695 14.628 41.8375 15.844C42.6268 17.06 43.0215 18.564 43.0215 20.356C43.0215 21.572 42.7442 22.6813 42.1895 23.684C41.6348 24.6653 40.8455 25.444 39.8215 26.02C38.8188 26.596 37.6242 26.884 36.2375 26.884ZM48.131 26.5V4.836H44.227V0.579998H57.763V4.836H53.891V26.5H48.131ZM67.219 26.884C65.2777 26.884 63.7417 26.5427 62.611 25.86C61.4803 25.1773 60.6697 24.196 60.179 22.916C59.6883 21.636 59.443 20.1107 59.443 18.34V8.708C59.443 6.916 59.6883 5.39067 60.179 4.132C60.6697 2.87333 61.4803 1.91333 62.611 1.252C63.7417 0.569332 65.2777 0.227999 67.219 0.227999C69.1817 0.227999 70.7283 0.569332 71.859 1.252C73.011 1.91333 73.8323 2.87333 74.323 4.132C74.8137 5.39067 75.059 6.916 75.059 8.708V18.34C75.059 20.1107 74.8137 21.636 74.323 22.916C73.8323 24.196 73.011 25.1773 71.859 25.86C70.7283 26.5427 69.1817 26.884 67.219 26.884ZM67.219 22.82C67.8163 22.82 68.2537 22.6707 68.531 22.372C68.8083 22.0733 68.9897 21.6893 69.075 21.22C69.1603 20.7507 69.203 20.2707 69.203 19.78V7.3C69.203 6.788 69.1603 6.308 69.075 5.86C68.9897 5.39067 68.8083 5.00666 68.531 4.708C68.2537 4.40933 67.8163 4.26 67.219 4.26C66.6643 4.26 66.2483 4.40933 65.971 4.708C65.6937 5.00666 65.5123 5.39067 65.427 5.86C65.3417 6.308 65.299 6.788 65.299 7.3V19.78C65.299 20.2707 65.331 20.7507 65.395 21.22C65.4803 21.6893 65.651 22.0733 65.907 22.372C66.1843 22.6707 66.6217 22.82 67.219 22.82ZM78.545 26.5V0.579998H85.681C87.4303 0.579998 88.945 0.771998 90.225 1.156C91.505 1.54 92.497 2.23333 93.201 3.236C93.9263 4.21733 94.289 5.61467 94.289 7.428C94.289 8.49467 94.2037 9.444 94.033 10.276C93.8623 11.108 93.5423 11.8333 93.073 12.452C92.625 13.0493 91.9743 13.5507 91.121 13.956L94.673 26.5H88.753L85.905 14.884H84.273V26.5H78.545ZM84.273 11.588H85.873C86.6837 11.588 87.313 11.4493 87.761 11.172C88.209 10.8733 88.5183 10.4573 88.689 9.924C88.881 9.36933 88.977 8.708 88.977 7.94C88.977 6.83067 88.7743 5.96667 88.369 5.348C87.9637 4.72933 87.217 4.42 86.129 4.42H84.273V11.588ZM96.4845 26.5L101.381 0.579998H107.909L112.741 26.5H107.461L106.597 21.028H102.789L101.893 26.5H96.4845ZM103.301 17.604H106.053L104.677 7.492L103.301 17.604Z" fill="white"/>
</svg>
