<svg width="20" height="30" viewBox="0 0 20 30" fill="none" xmlns="http://www.w3.org/2000/svg">
<path d="M9.99463 15.0049C9.99463 12.2488 12.1828 10.0032 14.8931 10.0032C17.5923 10.0032 19.7916 12.2375 19.7916 15.0049C19.7916 17.761 17.6034 20.0066 14.8931 20.0066C12.1939 20.0066 9.99463 17.761 9.99463 15.0049Z" fill="#1ABCFE"/>
<path d="M0.208496 24.9981C0.208496 22.242 2.39671 19.9963 5.10698 19.9963H10.0055V24.9981C10.0055 27.7541 7.81725 29.9998 5.10698 29.9998C2.39671 29.9998 0.208496 27.7655 0.208496 24.9981Z" fill="#0ACF83"/>
<path d="M9.99463 0.0113418V10.0035H14.8931C17.5923 10.0035 19.7916 7.76912 19.7916 5.00173C19.7916 2.24567 17.6034 0 14.8931 0H9.99463V0.0113418Z" fill="#FF7262"/>
<path d="M0.208496 5.01369C0.208496 7.76974 2.39671 10.0154 5.10698 10.0154H10.0055V0.0119629H5.10698C2.39671 0.0119629 0.208496 2.24629 0.208496 5.01369Z" fill="#F24E1E"/>
<path d="M0.208496 15.0049C0.208496 17.761 2.39671 20.0066 5.10698 20.0066H10.0055V10.0032H5.10698C2.39671 10.0032 0.208496 12.2488 0.208496 15.0049Z" fill="#A259FF"/>
</svg>
